<?xml version="1.0" encoding="utf-8"?>
<svg version="1.1" xmlns:xlink="http://www.w3.org/1999/xlink" width="15px" height="15px" xmlns="http://www.w3.org/2000/svg">
  <g transform="matrix(1 0 0 1 -56 -151 )">
    <path d="M 63.5 154.5  C 65.74 154.5  67.5 156.26  67.5 158.5  C 67.5 160.74  65.74 162.5  63.5 162.5  C 61.26 162.5  59.5 160.74  59.5 158.5  C 59.5 156.26  61.26 154.5  63.5 154.5  Z " fill-rule="nonzero" fill="#1abc9c" stroke="none" />
    <path d="M 63.5 153  C 66.58 153  69 155.42  69 158.5  C 69 161.58  66.58 164  63.5 164  C 60.42 164  58 161.58  58 158.5  C 58 155.42  60.42 153  63.5 153  Z " stroke-width="4" stroke="#1abc9c" fill="none" stroke-opacity="0.498039215686275" />
  </g>
</svg>