<?xml version="1.0" encoding="utf-8"?>
<svg version="1.1" xmlns:xlink="http://www.w3.org/1999/xlink" width="50px" height="50px" xmlns="http://www.w3.org/2000/svg">
  <g transform="matrix(1 0 0 1 -539 -443 )">
    <path d="M 50 25.0001429310161  C 50.0000000558761 11.1928888728402  38.8071683442671 0  25.0000857697849 0  C 11.1928888169642 0  0 11.1928888728402  0 25.0001429310161  C 0 38.8071111271596  11.1928888728403 50  25.0000857697849 50  C 38.8071683442671 50  50 38.8071111271596  50 25.0001429310161  Z M 45.8334143722767 25.0001429868921  C 45.8334143722767 36.5059688707555  36.5060260319869 45.8333572110455  25.0000857697849 45.8333572110455  C 13.4940883463517 45.8333572110455  4.16670000606196 36.5059688707555  4.16670000606196 25.0001429868921  C 4.16670000606196 13.4940311851205  13.4940883463517 4.16664290070674  25.0000857697849 4.16664290070674  C 36.5060260319869 4.16664290070674  45.8334143722767 13.4940312409965  45.8334143722767 25.0001429868921  Z M 38.9731570723986 23.559248763877  L 28.5564641905371 13.1425558820153  C 27.7427592007712 12.3287937310183  26.4241123448605 12.3287937310183  25.6105217334333 13.1425558820153  C 24.7969882832373 13.9558605755343  24.7969882832373 15.2747933493534  25.6105217334333 16.0882124212109  L 32.4710077341124 23  L 12.500157235293 23  C 11.3490429077659 22.9485840994274  10.4167500430928 23.8809341253318  10.4167500430928 25.0319341303964  C 10.4167500430928 26.1830484579236  11.3490429077659 27.1152841613654  12.500157235293 27  L 32.4710077341124 27  L 25.6105217334333 33.9757701061687  C 25.2042695991066 34.3821365629577  25.0002001481234 34.9154389488392  25.0002001481234 35.4486269563819  C 25.0002001481234 35.9821008818333  25.2032976346712 36.5154032677145  25.6105217334333 36.9215981849338  C 26.4241123448605 37.7350744180225  27.7428164178786 37.7350744180225  28.5564641905371 36.9215981849338  L 38.9731570723986 26.5049053030723  C 39.7866905225946 25.6914290699836  39.7866905225946 24.3725534573957  38.9731570723986 23.559248763877  Z " fill-rule="nonzero" fill="#cccccc" stroke="none" transform="matrix(1 0 0 1 539 443 )" />
  </g>
</svg>